<?xml version="1.0" standalone="no"?>
<!DOCTYPE svg PUBLIC "-//W3C//DTD SVG 20010904//EN"
 "http://www.w3.org/TR/2001/REC-SVG-20010904/DTD/svg10.dtd">
<svg version="1.0" xmlns="http://www.w3.org/2000/svg"
 width="315.000000pt" height="315.000000pt" viewBox="0 0 315.000000 315.000000"
 preserveAspectRatio="xMidYMid meet">
<metadata>
Created by potrace 1.11, written by Peter Selinger 2001-2013
</metadata>
<g transform="translate(0.000000,315.000000) scale(0.100000,-0.100000)"
fill="#000000" stroke="none">
<path d="M1365 3135 c-617 -101 -1075 -551 -1202 -1180 -14 -69 -17 -204 -20
-993 l-4 -913 47 -20 c56 -25 116 -21 205 16 117 47 325 202 463 343 l59 61
56 -28 c83 -43 219 -88 334 -113 134 -28 387 -31 525 -5 711 132 1210 754
1179 1472 -9 207 -55 391 -142 570 -195 400 -578 694 -1017 780 -117 23 -370
28 -483 10z m355 -776 c30 -6 97 -30 147 -55 155 -74 271 -206 330 -376 35
-98 42 -244 18 -352 -73 -332 -398 -556 -730 -506 -253 38 -449 202 -532 443
-25 73 -28 96 -28 207 0 111 4 134 28 205 69 197 211 342 403 411 114 42 224
48 364 23z"/>
</g>
</svg>
